<svg xmlns="http://www.w3.org/2000/svg" viewBox="0 0 16 16" fill="#0" width="64" height="64" >
    <path  d="M 8 0 L 8 2 C 4.6918661 2 2 4.6918661 2 8 C 2 11.308134 4.6918661 14 8 14 C 11.128681 14 13.731761 11.6118 13.998047 8.5429688 A 0.50005 0.50005 0 1 0 13.001953 8.4570312 C 12.780239 11.0122 10.621319 13 8 13 C 5.2321339 13 3 10.767866 3 8 C 3 5.2321339 5.2321339 3 8 3 L 8 5 L 11 2.5 L 8 0 z M 12.5 4 A 0.5 0.5 0 0 0 12 4.5 A 0.5 0.5 0 0 0 12.5 5 A 0.5 0.5 0 0 0 13 4.5 A 0.5 0.5 0 0 0 12.5 4 z M 13.5 6 A 0.5 0.5 0 0 0 13 6.5 A 0.5 0.5 0 0 0 13.5 7 A 0.5 0.5 0 0 0 14 6.5 A 0.5 0.5 0 0 0 13.5 6 z"></path>
</svg>